<?xml version="1.0" encoding="UTF-8" standalone="no"?>
<!-- Created with Inkscape (http://www.inkscape.org/) -->

<svg
   xmlns:dc="http://purl.org/dc/elements/1.1/"
   xmlns:cc="http://creativecommons.org/ns#"
   xmlns:rdf="http://www.w3.org/1999/02/22-rdf-syntax-ns#"
   xmlns:svg="http://www.w3.org/2000/svg"
   xmlns="http://www.w3.org/2000/svg"
   version="1.1"
   width="620"
   height="542.94"
   id="svg2">
  <defs
     id="defs4" />
  <metadata
     id="metadata7">
    <rdf:RDF>
      <cc:Work
         rdf:about="">
        <dc:format>image/svg+xml</dc:format>
        <dc:type
           rdf:resource="http://purl.org/dc/dcmitype/StillImage" />
        <dc:title></dc:title>
      </cc:Work>
    </rdf:RDF>
  </metadata>
  <g
     transform="translate(-52,-254.42)"
     id="layer1">
    <path
       d="m 383.16,758.25 0,-29.1 4.02,0 4.01,0 0,12.04 0,12.05 15.06,0 15.05,0 0,-12.05 0,-12.04 4.01,0 4.02,0 0,29.1 0,29.11 -4.02,0 -4.01,0 0,-13.55 0,-13.55 -15.05,0 -15.06,0 0,13.55 0,13.55 -4.01,0 -4.02,0 0,-29.11 z m 243.17,-38.52 c -6.38,-2.09 -11.86,-6.99 -15.04,-13.45 -2.48,-5.06 -2.81,-6.86 -2.81,-15.27 0,-8.42 0.33,-10.21 2.82,-15.28 6.04,-12.3 18.57,-17.47 32.37,-13.35 10.64,3.17 17.19,12.47 18.2,25.82 1.4,18.52 -8.6,31.53 -24.99,32.53 -3.71,0.22 -8.07,-0.19 -10.55,-1 z m 19.51,-9.28 c 4.86,-3.86 7.36,-8.97 8.03,-16.4 1.04,-11.39 -3.2,-20.59 -11.15,-24.21 -10.38,-4.7 -21.99,0.6 -25.23,11.53 -5.35,18 3.59,33.43 18.82,32.46 4.56,-0.29 6.54,-0.99 9.53,-3.38 z m -262.68,-19.44 0,-29.1 4.27,0 4.26,0 14.81,22.31 14.79,22.3 0,-22.33 0,-22.33 4.01,0 4.02,0 0,29.1 0,29.11 -4.27,0 -4.26,0 -14.81,-22.31 -14.79,-22.3 0,22.33 0,22.33 -4.01,0 -4.02,0 0,-29.11 z m 171.15,-34.12 -43.12,-24.98 -3.05,1.84 c -1.67,1.02 -17.26,10.05 -34.63,20.07 -28.95,16.69 -31.71,18.06 -32.88,16.46 -0.71,-0.98 -1.15,-2.19 -0.98,-2.7 0.18,-0.53 18.01,-11.15 39.64,-23.63 l 39.33,-22.69 0,-45.42 0,-45.41 2.51,0 2.51,0 0,39.55 0,39.57 43.91,25.33 c 24.15,13.94 44.05,25.45 44.23,25.58 0.5,0.38 -2.23,4.46 -2.99,4.46 -0.37,0 -19.12,-10.67 -41.65,-23.71 -22.54,-13.03 -41.55,-23.92 -42.24,-24.19 -0.89,-0.35 -1.26,0.75 -1.26,3.68 0,3.58 -0.42,4.4 -3,5.88 -1.66,0.93 -2.99,1.94 -2.98,2.21 0,0.27 18.88,11.3 41.9,24.5 23.02,13.2 42.01,24.11 42.19,24.25 0.76,0.56 -2,4.44 -3.13,4.39 -0.66,0 -20.62,-11.29 -44.34,-25.04 z m -224.84,-8.52 -40.15,-23.3 -0.29,-66.64 -0.3,-66.64 -40.09,-23.06 c -22.06,-12.69 -40.11,-23.56 -40.11,-24.15 0,-0.59 0.56,-1.79 1.25,-2.64 1.1,-1.36 6.34,1.39 41.36,21.71 l 40.11,23.27 23.12,-13.36 c 12.72,-7.34 37.9,-21.82 55.96,-32.18 l 32.82,-18.84 0,-45.92 0,-45.91 3.01,0 3,0 0.26,45.9 0.26,45.91 38.64,22.33 c 21.25,12.28 38.77,22.93 38.93,23.69 0.16,0.74 -0.37,1.91 -1.19,2.59 -1.22,1.01 -8.31,-2.71 -40.67,-21.43 l -39.19,-22.66 -56.19,32.37 -56.19,32.38 0,64.73 0,64.74 37.88,21.79 c 20.82,11.98 38.69,22.38 39.7,23.12 1.78,1.3 1.78,1.41 0,3.41 -1.84,2.07 -1.94,2.02 -41.98,-21.21 z m -21.58,-91.85 0,-55.2 3.01,0 3.01,0 0,55.2 0,55.2 -3.01,0 -3.01,0 0,-55.2 z m 189.69,-64.23 0,-29.1 4.26,0 4.27,0 14.8,22.31 14.79,22.3 0,-22.33 0,-22.33 4.02,0 4.01,0 0,29.1 0,29.11 -4.26,0 -4.27,0 -14.8,-22.31 -14.79,-22.3 0,22.33 0,22.33 -4.02,0 -4.01,0 0,-29.11 z m -57.71,-22.74 c -18.77,-10.84 -34.28,-19.82 -34.46,-19.97 -0.18,-0.14 0.27,-1.39 1.01,-2.76 l 1.33,-2.5 34.45,19.87 c 18.93,10.93 34.67,20.1 34.96,20.39 0.89,0.9 -0.72,4.7 -1.98,4.68 -0.66,0 -16.54,-8.88 -35.31,-19.71 z m -317.41,0.66 c -1.81,-1.09 -4.05,-3.6 -4.99,-5.57 -1.47,-3.11 -1.51,-3.7 -0.23,-4.5 2.49,-1.59 3.68,-1.09 5,2.08 1.48,3.6 3.7,4.98 7.99,4.98 5.91,0 9.87,-6.75 7.05,-12.03 -1.2,-2.24 -7.04,-4.35 -9.47,-3.41 -1.4,0.53 -1.69,0.21 -1.42,-1.58 0.24,-1.59 1.5,-2.64 4.26,-3.58 5.95,-2.04 7.37,-5.75 3.61,-9.51 -3.73,-3.73 -11.4,-1.43 -13.2,3.96 -0.29,0.88 -1.19,1.09 -2.7,0.61 -2.85,-0.9 -2.16,-3.82 1.86,-7.97 3.99,-4.1 11.14,-4.76 15.97,-1.46 5.54,3.79 6.57,10.79 2.15,14.58 -1.84,1.56 -1.79,1.72 1.53,4.86 10.57,9.97 -4.74,26.28 -17.41,18.54 z m 45.6,-15.5 c -6.32,-2.26 -9.62,-5.57 -13.52,-13.6 -2.32,-4.79 -2.68,-6.79 -2.69,-15.06 0,-10.54 2.04,-16.87 7.3,-22.42 5.99,-6.31 17.11,-9.17 26.16,-6.72 5.25,1.41 11.55,7.08 13.67,12.28 l 1.51,3.73 -3.76,1.03 c -2.07,0.57 -3.87,0.71 -4.01,0.3 -1.02,-2.97 -4.78,-7.61 -7.51,-9.28 -7.26,-4.43 -18.38,-1.01 -22.85,7.03 -2.18,3.94 -2.51,5.75 -2.51,14.05 0,8.3 0.33,10.12 2.51,14.05 3.36,6.04 9.56,9.35 16.38,8.75 6.04,-0.55 9.51,-3.03 12.73,-9.12 2.42,-4.56 2.64,-4.73 6.02,-4.1 1.94,0.35 3.65,0.78 3.83,0.95 1.07,1.04 -4.72,11.16 -7.97,13.94 -6.43,5.5 -16.8,7.22 -25.29,4.19 z M 62,426.05 l 0,-29.1 4.015,0 4.014,0 0,12.04 0,12.04 15.055,0 15.056,0 0,-12.04 0,-12.04 4.01,0 4.02,0 0,29.1 0,29.11 -4.02,0 -4.01,0 0,-13.55 0,-13.55 -15.056,0 -15.055,0 0,13.55 0,13.55 -4.014,0 -4.015,0 0,-29.11 z m 432.57,-87.38 c 0,-2.57 2.87,-6.09 12.65,-15.49 8.98,-8.63 10.45,-10.48 10.44,-13.23 0,-6.67 -9.62,-9.87 -14.61,-4.89 -1.36,1.37 -2.46,3.18 -2.46,4.02 0,1.71 -1.75,2.01 -3.88,0.66 -1.59,-1.01 -0.75,-4.66 1.74,-7.49 8.42,-9.58 25.53,-3.48 23.93,8.53 -0.69,5.04 -4.01,9.36 -12.78,16.57 -3.85,3.17 -7.01,6.13 -7.01,6.57 0,0.44 4.52,0.8 10.04,0.8 10.04,0 10.04,0 10.04,2.51 l 0,2.51 -14.05,0 c -9.28,0 -14.05,-0.36 -14.05,-1.07 z m -111.41,-45.1 0,-29.1 4.27,0 4.26,0 14.81,22.3 14.79,22.31 0,-22.33 0,-22.33 4.01,0 4.02,0 0,29.1 0,29.11 -4.27,0 -4.26,0 -14.81,-22.31 -14.79,-22.3 0,22.33 0,22.33 -4.01,0 -4.02,0 0,-29.11 z m 57.21,0 0,-29.1 4.01,0 4.02,0 0,12.04 0,12.05 15.05,0 15.06,0 0,-12.05 0,-12.04 4.01,0 4.02,0 0,29.1 0,29.11 -4.02,0 -4.01,0 0,-13.55 0,-13.55 -15.06,0 -15.05,0 0,13.55 0,13.55 -4.02,0 -4.01,0 0,-29.11 z"
       id="path2996"
       style="fill:#000000" />
  </g>
</svg>
